<svg width="25" height="25" viewBox="0 0 25 25" fill="none" xmlns="http://www.w3.org/2000/svg">
<path opacity="0.4" d="M10.5 13.5C10.9295 14.0742 11.4774 14.5492 12.1066 14.893C12.7357 15.2367 13.4315 15.4411 14.1467 15.4924C14.8618 15.5436 15.5796 15.4404 16.2513 15.1898C16.9231 14.9392 17.5331 14.5471 18.04 14.04L21.04 11.04C21.9508 10.097 22.4548 8.834 22.4434 7.52302C22.432 6.21204 21.9061 4.95797 20.9791 4.03093C20.0521 3.10389 18.798 2.57805 17.487 2.56666C16.176 2.55526 14.913 3.05924 13.97 3.97003L12.25 5.68003" stroke="#B9FAFF" stroke-linecap="round" stroke-linejoin="round"/>
<path d="M14.5 11.5C14.0706 10.9259 13.5227 10.4508 12.8935 10.107C12.2643 9.76328 11.5685 9.55886 10.8534 9.50765C10.1382 9.45643 9.42043 9.55961 8.74867 9.8102C8.07691 10.0608 7.4669 10.4529 6.96002 10.96L3.96002 13.96C3.04923 14.903 2.54525 16.166 2.55665 17.477C2.56804 18.788 3.09388 20.042 4.02092 20.9691C4.94796 21.8961 6.20203 22.422 7.51301 22.4334C8.82399 22.4447 10.087 21.9408 11.03 21.03L12.74 19.32" stroke="#B9FAFF" stroke-linecap="round" stroke-linejoin="round"/>
</svg>
