<svg width="24" height="25" viewBox="0 0 24 25" fill="none" xmlns="http://www.w3.org/2000/svg">
<path opacity="0.4" d="M3 8.3C3 6.61984 3 5.77976 3.32698 5.13803C3.6146 4.57354 4.07354 4.1146 4.63803 3.82698C5.27976 3.5 6.11984 3.5 7.8 3.5H16.2C17.8802 3.5 18.7202 3.5 19.362 3.82698C19.9265 4.1146 20.3854 4.57354 20.673 5.13803C21 5.77976 21 6.61984 21 8.3V14C21 15.3978 21 16.0967 20.7716 16.6481C20.4672 17.3831 19.8831 17.9672 19.1481 18.2716C18.5967 18.5 17.8978 18.5 16.5 18.5C16.0114 18.5 15.7671 18.5 15.5405 18.5535C15.2383 18.6248 14.9569 18.7656 14.7185 18.9645C14.5397 19.1137 14.3931 19.3091 14.1 19.7L12.64 21.6467C12.4229 21.9362 12.3143 22.0809 12.1812 22.1327C12.0647 22.178 11.9353 22.178 11.8188 22.1327C11.6857 22.0809 11.5771 21.9362 11.36 21.6467L9.9 19.7C9.60685 19.3091 9.46028 19.1137 9.2815 18.9645C9.04312 18.7656 8.76169 18.6248 8.45951 18.5535C8.23287 18.5 7.98858 18.5 7.5 18.5C6.10218 18.5 5.40326 18.5 4.85195 18.2716C4.11687 17.9672 3.53284 17.3831 3.22836 16.6481C3 16.0967 3 15.3978 3 14V8.3Z" stroke="#FFDCBE" stroke-linecap="round" stroke-linejoin="round"/>
<path fill-rule="evenodd" clip-rule="evenodd" d="M11.9973 8.83059C11.1975 7.9216 9.8639 7.67708 8.86188 8.50945C7.85986 9.34182 7.71879 10.7335 8.50568 11.7179C8.97361 12.3033 10.1197 13.3531 10.9719 14.1079C11.3237 14.4195 11.4996 14.5753 11.7114 14.6385C11.8925 14.6926 12.102 14.6926 12.2832 14.6385C12.4949 14.5753 12.6708 14.4195 13.0226 14.1079C13.8748 13.3531 15.0209 12.3033 15.4888 11.7179C16.2757 10.7335 16.1519 9.33306 15.1326 8.50945C14.1134 7.68584 12.797 7.9216 11.9973 8.83059Z" stroke="#FFDCBE" stroke-linecap="round" stroke-linejoin="round"/>
</svg>
