<svg width="25" height="24" viewBox="0 0 25 24" fill="none" xmlns="http://www.w3.org/2000/svg">
<path opacity="0.4" d="M9.5 18V6.35537C9.5 5.87383 9.5 5.63306 9.5876 5.43778C9.66482 5.26565 9.78917 5.11887 9.94627 5.0144C10.1245 4.89588 10.362 4.8563 10.837 4.77714L19.637 3.31047C20.2779 3.20364 20.5984 3.15023 20.8482 3.243C21.0674 3.32441 21.2511 3.48005 21.3674 3.68286C21.5 3.91398 21.5 4.23889 21.5 4.8887V16" stroke="#E9F8EC" stroke-linecap="round" stroke-linejoin="round"/>
<path d="M6.5 21C8.15685 21 9.5 19.6569 9.5 18C9.5 16.3431 8.15685 15 6.5 15C4.84315 15 3.5 16.3431 3.5 18C3.5 19.6569 4.84315 21 6.5 21Z" stroke="#E9F8EC" stroke-linecap="round" stroke-linejoin="round"/>
<path d="M18.5 19C20.1569 19 21.5 17.6569 21.5 16C21.5 14.3431 20.1569 13 18.5 13C16.8431 13 15.5 14.3431 15.5 16C15.5 17.6569 16.8431 19 18.5 19Z" stroke="#E9F8EC" stroke-linecap="round" stroke-linejoin="round"/>
</svg>
