<svg width="25" height="25" viewBox="0 0 25 25" fill="none" xmlns="http://www.w3.org/2000/svg">
<path opacity="0.4" d="M9.5 18.5V6.85543C9.5 6.37389 9.5 6.13312 9.5876 5.93784C9.66482 5.76571 9.78917 5.61893 9.94627 5.51446C10.1245 5.39594 10.362 5.35636 10.837 5.2772L19.637 3.81053C20.2779 3.7037 20.5984 3.65029 20.8482 3.74306C21.0674 3.82447 21.2511 3.98011 21.3674 4.18292C21.5 4.41404 21.5 4.73895 21.5 5.38876V16.5" stroke="#FFCAE4" stroke-linecap="round" stroke-linejoin="round"/>
<path d="M6.5 21.5C8.15685 21.5 9.5 20.1569 9.5 18.5C9.5 16.8431 8.15685 15.5 6.5 15.5C4.84315 15.5 3.5 16.8431 3.5 18.5C3.5 20.1569 4.84315 21.5 6.5 21.5Z" stroke="#FFCAE4" stroke-linecap="round" stroke-linejoin="round"/>
<path d="M18.5 19.5C20.1569 19.5 21.5 18.1569 21.5 16.5C21.5 14.8431 20.1569 13.5 18.5 13.5C16.8431 13.5 15.5 14.8431 15.5 16.5C15.5 18.1569 16.8431 19.5 18.5 19.5Z" stroke="#FFCAE4" stroke-linecap="round" stroke-linejoin="round"/>
</svg>
