<svg width="24" height="25" viewBox="0 0 24 25" fill="none" xmlns="http://www.w3.org/2000/svg">
<g clip-path="url(#clip0_27_120)">
<path d="M17.6921 11.6235C17.5888 11.574 17.4837 11.5263 17.3774 11.4806C17.1921 8.06728 15.327 6.11312 12.1952 6.09312C12.181 6.09304 12.1669 6.09304 12.1528 6.09304C10.2795 6.09304 8.72164 6.89261 7.76275 8.34759L9.48512 9.5291C10.2014 8.44229 11.3256 8.2106 12.1536 8.2106C12.1631 8.2106 12.1727 8.2106 12.1822 8.21069C13.2134 8.21726 13.9915 8.51708 14.4951 9.10175C14.8616 9.52741 15.1067 10.1156 15.2281 10.858C14.3139 10.7026 13.3251 10.6548 12.2681 10.7154C9.29059 10.8869 7.37639 12.6235 7.50495 15.0365C7.57019 16.2605 8.17996 17.3135 9.22188 18.0014C10.1028 18.5829 11.2374 18.8673 12.4165 18.8029C13.9737 18.7175 15.1954 18.1234 16.0476 17.037C16.6949 16.212 17.1042 15.1429 17.285 13.7957C18.0271 14.2436 18.5771 14.833 18.8809 15.5415C19.3974 16.7459 19.4275 18.725 17.8126 20.3385C16.3978 21.752 14.697 22.3635 12.1267 22.3824C9.27552 22.3613 7.11922 21.4469 5.71726 19.6646C4.40444 17.9958 3.72596 15.5852 3.70065 12.5C3.72596 9.41473 4.40444 7.0042 5.71726 5.33534C7.11922 3.55311 9.27549 2.63875 12.1266 2.61756C14.9985 2.63891 17.1924 3.55767 18.648 5.3485C19.3618 6.2267 19.8999 7.3311 20.2546 8.61879L22.273 8.08028C21.843 6.49528 21.1664 5.12946 20.2456 3.99675C18.3795 1.70084 15.6503 0.524394 12.1337 0.5H12.1196C8.6102 0.524309 5.91151 1.70522 4.09854 4.00991C2.48524 6.0608 1.65305 8.91446 1.62509 12.4916L1.625 12.5L1.62509 12.5084C1.65305 16.0855 2.48524 18.9393 4.09854 20.9901C5.91151 23.2948 8.6102 24.4757 12.1196 24.5H12.1337C15.2538 24.4784 17.453 23.6615 19.2647 21.8514C21.6351 19.4833 21.5637 16.5149 20.7825 14.6926C20.222 13.3859 19.1534 12.3245 17.6921 11.6235ZM12.3051 16.6884C11.0001 16.7619 9.6443 16.1761 9.57745 14.9215C9.5279 13.9913 10.2395 12.9533 12.3851 12.8296C12.6309 12.8154 12.872 12.8085 13.1089 12.8085C13.8883 12.8085 14.6174 12.8842 15.2802 13.0291C15.033 16.1169 13.5827 16.6183 12.3051 16.6884Z" fill="white"/>
</g>
<defs>
<clipPath id="clip0_27_120">
<rect width="24" height="24" fill="white" transform="translate(0 0.5)"/>
</clipPath>
</defs>
</svg>
