<svg width="24" height="25" viewBox="0 0 24 25" fill="none" xmlns="http://www.w3.org/2000/svg">
<path d="M12.492 1.27174C13.7198 1.25299 14.9385 1.26274 16.1565 1.25299C16.197 2.77624 16.815 4.14724 17.7983 5.16274L17.7968 5.16124C18.855 6.11449 20.232 6.73249 21.75 6.83749L21.771 6.83899V10.616C20.337 10.58 18.9885 10.2492 17.7728 9.68074L17.8343 9.70624C17.2463 9.42349 16.749 9.13324 16.2765 8.80924L16.3155 8.83474C16.3065 11.5715 16.3245 14.3082 16.2968 17.0352C16.2195 18.425 15.7575 19.6925 15.0165 20.7507L15.0315 20.7275C13.7925 22.502 11.7855 23.6667 9.50325 23.7357H9.49275C9.4005 23.7402 9.29176 23.7425 9.18226 23.7425C7.88476 23.7425 6.67201 23.381 5.63851 22.7532L5.66851 22.7705C3.78751 21.6387 2.49 19.7022 2.25 17.45L2.247 17.4192C2.22825 16.9505 2.21925 16.4817 2.238 16.0227C2.6055 12.4385 5.60851 9.66574 9.25876 9.66574C9.66901 9.66574 10.071 9.70099 10.4618 9.76774L10.4198 9.76174C10.4385 11.1485 10.3823 12.536 10.3823 13.9227C10.065 13.808 9.69901 13.7412 9.31726 13.7412C7.91626 13.7412 6.72451 14.6367 6.28351 15.887L6.27676 15.9095C6.17701 16.2297 6.11926 16.598 6.11926 16.979C6.11926 17.1335 6.12901 17.2865 6.14701 17.4365L6.14551 17.4185C6.39451 18.953 7.71001 20.111 9.29626 20.111C9.34201 20.111 9.38701 20.1102 9.43201 20.108H9.42526C10.5225 20.075 11.475 19.4847 12.0135 18.6125L12.021 18.599C12.2213 18.32 12.3585 17.9825 12.4043 17.6157L12.405 17.6052C12.4988 15.9275 12.4613 14.2595 12.4703 12.5817C12.4793 8.80474 12.4613 5.03674 12.489 1.26949L12.492 1.27174Z" fill="white"/>
</svg>
